<mxfile>
    <diagram id="BWzY9wqVH776P2Ob1cqu" name="Page-1">
        <mxGraphModel dx="807" dy="617" grid="1" gridSize="5" guides="1" tooltips="1" connect="1" arrows="1" fold="1" page="1" pageScale="1" pageWidth="850" pageHeight="1100" math="0" shadow="0">
            <root>
                <mxCell id="0"/>
                <mxCell id="1" parent="0"/>
                <mxCell id="1xTmKdq7Xywd2hlqX2Ob-1" value="ABSTRACTIONS" style="rounded=0;whiteSpace=wrap;html=1;verticalAlign=top;" parent="1" vertex="1">
                    <mxGeometry x="40" y="40" width="780" height="380" as="geometry"/>
                </mxCell>
                <mxCell id="1xTmKdq7Xywd2hlqX2Ob-2" value="ADDRESS" style="rounded=0;whiteSpace=wrap;html=1;imageWidth=24;" parent="1" vertex="1">
                    <mxGeometry x="495" y="370" width="90" height="25" as="geometry"/>
                </mxCell>
                <mxCell id="1xTmKdq7Xywd2hlqX2Ob-3" value="CLIENT" style="rounded=0;whiteSpace=wrap;html=1;imageWidth=24;" parent="1" vertex="1">
                    <mxGeometry x="275" y="370" width="90" height="25" as="geometry"/>
                </mxCell>
                <mxCell id="1xTmKdq7Xywd2hlqX2Ob-4" value="COMMAND" style="rounded=0;whiteSpace=wrap;html=1;imageWidth=24;" parent="1" vertex="1">
                    <mxGeometry x="495" y="90" width="90" height="25" as="geometry"/>
                </mxCell>
                <mxCell id="1xTmKdq7Xywd2hlqX2Ob-8" value="ID" style="rounded=0;whiteSpace=wrap;html=1;imageWidth=24;" parent="1" vertex="1">
                    <mxGeometry x="330" y="165" width="90" height="25" as="geometry"/>
                </mxCell>
                <mxCell id="1xTmKdq7Xywd2hlqX2Ob-9" value="EMAIL" style="rounded=0;whiteSpace=wrap;html=1;imageWidth=24;" parent="1" vertex="1">
                    <mxGeometry x="385" y="370" width="90" height="25" as="geometry"/>
                </mxCell>
                <mxCell id="1xTmKdq7Xywd2hlqX2Ob-10" value="DESCRIPTION" style="rounded=0;whiteSpace=wrap;html=1;imageWidth=24;" parent="1" vertex="1">
                    <mxGeometry x="550" y="165" width="90" height="25" as="geometry"/>
                </mxCell>
                <mxCell id="1xTmKdq7Xywd2hlqX2Ob-11" value="ITEM" style="rounded=0;whiteSpace=wrap;html=1;imageWidth=24;" parent="1" vertex="1">
                    <mxGeometry x="220" y="90" width="90" height="25" as="geometry"/>
                </mxCell>
                <mxCell id="1xTmKdq7Xywd2hlqX2Ob-12" value="NAME" style="rounded=0;whiteSpace=wrap;html=1;imageWidth=24;" parent="1" vertex="1">
                    <mxGeometry x="660" y="165" width="90" height="25" as="geometry"/>
                </mxCell>
                <mxCell id="1xTmKdq7Xywd2hlqX2Ob-13" value="POSITION" style="rounded=0;whiteSpace=wrap;html=1;imageWidth=24;" parent="1" vertex="1">
                    <mxGeometry x="220" y="165" width="90" height="25" as="geometry"/>
                </mxCell>
                <mxCell id="1xTmKdq7Xywd2hlqX2Ob-14" value="QUANTITY" style="rounded=0;whiteSpace=wrap;html=1;imageWidth=24;" parent="1" vertex="1">
                    <mxGeometry x="110" y="165" width="90" height="25" as="geometry"/>
                </mxCell>
                <mxCell id="1xTmKdq7Xywd2hlqX2Ob-15" value="RACK" style="rounded=0;whiteSpace=wrap;html=1;imageWidth=24;" parent="1" vertex="1">
                    <mxGeometry x="165" y="240" width="90" height="25" as="geometry"/>
                </mxCell>
                <mxCell id="1xTmKdq7Xywd2hlqX2Ob-16" value="REQUIREMENT" style="rounded=0;whiteSpace=wrap;html=1;imageWidth=24;" parent="1" vertex="1">
                    <mxGeometry x="495" y="240" width="90" height="25" as="geometry"/>
                </mxCell>
                <mxCell id="1xTmKdq7Xywd2hlqX2Ob-17" value="SCRIPT" style="rounded=0;whiteSpace=wrap;html=1;imageWidth=24;" parent="1" vertex="1">
                    <mxGeometry x="385" y="240" width="90" height="25" as="geometry"/>
                </mxCell>
                <mxCell id="1xTmKdq7Xywd2hlqX2Ob-18" value="SHELF" style="rounded=0;whiteSpace=wrap;html=1;imageWidth=24;" parent="1" vertex="1">
                    <mxGeometry x="275" y="240" width="90" height="25" as="geometry"/>
                </mxCell>
                <mxCell id="1xTmKdq7Xywd2hlqX2Ob-20" value="USER" style="rounded=0;whiteSpace=wrap;html=1;imageWidth=24;" parent="1" vertex="1">
                    <mxGeometry x="385" y="295" width="90" height="25" as="geometry"/>
                </mxCell>
                <mxCell id="1xTmKdq7Xywd2hlqX2Ob-21" value="VARIANT" style="rounded=0;whiteSpace=wrap;html=1;imageWidth=24;" parent="1" vertex="1">
                    <mxGeometry x="440" y="165" width="90" height="25" as="geometry"/>
                </mxCell>
                <mxCell id="1xTmKdq7Xywd2hlqX2Ob-24" value="" style="endArrow=classic;html=1;exitX=0.5;exitY=1;exitDx=0;exitDy=0;entryX=0.5;entryY=0;entryDx=0;entryDy=0;" parent="1" source="1xTmKdq7Xywd2hlqX2Ob-4" target="1xTmKdq7Xywd2hlqX2Ob-12" edge="1">
                    <mxGeometry width="50" height="50" relative="1" as="geometry">
                        <mxPoint x="420" y="205" as="sourcePoint"/>
                        <mxPoint x="470" y="155" as="targetPoint"/>
                    </mxGeometry>
                </mxCell>
                <mxCell id="1xTmKdq7Xywd2hlqX2Ob-25" value="" style="endArrow=classic;html=1;exitX=0.5;exitY=1;exitDx=0;exitDy=0;entryX=0.5;entryY=0;entryDx=0;entryDy=0;" parent="1" source="1xTmKdq7Xywd2hlqX2Ob-4" target="1xTmKdq7Xywd2hlqX2Ob-10" edge="1">
                    <mxGeometry width="50" height="50" relative="1" as="geometry">
                        <mxPoint x="420" y="205" as="sourcePoint"/>
                        <mxPoint x="470" y="155" as="targetPoint"/>
                    </mxGeometry>
                </mxCell>
                <mxCell id="1xTmKdq7Xywd2hlqX2Ob-26" value="" style="endArrow=classic;html=1;exitX=0.5;exitY=1;exitDx=0;exitDy=0;entryX=0.5;entryY=0;entryDx=0;entryDy=0;" parent="1" source="1xTmKdq7Xywd2hlqX2Ob-11" target="1xTmKdq7Xywd2hlqX2Ob-8" edge="1">
                    <mxGeometry width="50" height="50" relative="1" as="geometry">
                        <mxPoint x="420" y="205" as="sourcePoint"/>
                        <mxPoint x="470" y="155" as="targetPoint"/>
                    </mxGeometry>
                </mxCell>
                <mxCell id="1xTmKdq7Xywd2hlqX2Ob-28" value="" style="endArrow=classic;html=1;exitX=0.5;exitY=1;exitDx=0;exitDy=0;entryX=0.5;entryY=0;entryDx=0;entryDy=0;" parent="1" source="1xTmKdq7Xywd2hlqX2Ob-11" target="1xTmKdq7Xywd2hlqX2Ob-13" edge="1">
                    <mxGeometry width="50" height="50" relative="1" as="geometry">
                        <mxPoint x="400" y="105" as="sourcePoint"/>
                        <mxPoint x="450" y="55" as="targetPoint"/>
                    </mxGeometry>
                </mxCell>
                <mxCell id="1xTmKdq7Xywd2hlqX2Ob-29" value="" style="endArrow=classic;html=1;exitX=0.5;exitY=1;exitDx=0;exitDy=0;entryX=0.5;entryY=0;entryDx=0;entryDy=0;" parent="1" source="1xTmKdq7Xywd2hlqX2Ob-11" target="1xTmKdq7Xywd2hlqX2Ob-14" edge="1">
                    <mxGeometry width="50" height="50" relative="1" as="geometry">
                        <mxPoint x="400" y="75" as="sourcePoint"/>
                        <mxPoint x="450" y="25" as="targetPoint"/>
                    </mxGeometry>
                </mxCell>
                <mxCell id="1xTmKdq7Xywd2hlqX2Ob-32" value="" style="endArrow=classic;html=1;exitX=0.5;exitY=1;exitDx=0;exitDy=0;" parent="1" source="1xTmKdq7Xywd2hlqX2Ob-4" edge="1">
                    <mxGeometry width="50" height="50" relative="1" as="geometry">
                        <mxPoint x="400" y="100" as="sourcePoint"/>
                        <mxPoint x="375" y="165" as="targetPoint"/>
                    </mxGeometry>
                </mxCell>
                <mxCell id="1xTmKdq7Xywd2hlqX2Ob-33" value="" style="endArrow=classic;html=1;exitX=0.5;exitY=1;exitDx=0;exitDy=0;entryX=0.5;entryY=0;entryDx=0;entryDy=0;" parent="1" source="1xTmKdq7Xywd2hlqX2Ob-4" target="1xTmKdq7Xywd2hlqX2Ob-21" edge="1">
                    <mxGeometry width="50" height="50" relative="1" as="geometry">
                        <mxPoint x="400" y="100" as="sourcePoint"/>
                        <mxPoint x="450" y="50" as="targetPoint"/>
                    </mxGeometry>
                </mxCell>
                <mxCell id="1xTmKdq7Xywd2hlqX2Ob-36" value="" style="endArrow=classic;html=1;exitX=0.5;exitY=1;exitDx=0;exitDy=0;entryX=0.5;entryY=0;entryDx=0;entryDy=0;" parent="1" source="1xTmKdq7Xywd2hlqX2Ob-13" target="1xTmKdq7Xywd2hlqX2Ob-15" edge="1">
                    <mxGeometry width="50" height="50" relative="1" as="geometry">
                        <mxPoint x="400" y="135" as="sourcePoint"/>
                        <mxPoint x="450" y="85" as="targetPoint"/>
                    </mxGeometry>
                </mxCell>
                <mxCell id="1xTmKdq7Xywd2hlqX2Ob-37" value="" style="endArrow=classic;html=1;entryX=0.5;entryY=0;entryDx=0;entryDy=0;exitX=0.5;exitY=1;exitDx=0;exitDy=0;" parent="1" source="1xTmKdq7Xywd2hlqX2Ob-13" target="1xTmKdq7Xywd2hlqX2Ob-18" edge="1">
                    <mxGeometry width="50" height="50" relative="1" as="geometry">
                        <mxPoint x="260" y="205" as="sourcePoint"/>
                        <mxPoint x="450" y="85" as="targetPoint"/>
                    </mxGeometry>
                </mxCell>
                <mxCell id="1xTmKdq7Xywd2hlqX2Ob-38" value="" style="endArrow=classic;html=1;exitX=0.5;exitY=1;exitDx=0;exitDy=0;entryX=0.5;entryY=0;entryDx=0;entryDy=0;" parent="1" source="1xTmKdq7Xywd2hlqX2Ob-21" target="1xTmKdq7Xywd2hlqX2Ob-17" edge="1">
                    <mxGeometry width="50" height="50" relative="1" as="geometry">
                        <mxPoint x="180" y="135" as="sourcePoint"/>
                        <mxPoint x="230" y="85" as="targetPoint"/>
                    </mxGeometry>
                </mxCell>
                <mxCell id="1xTmKdq7Xywd2hlqX2Ob-39" value="" style="endArrow=classic;html=1;exitX=0.5;exitY=1;exitDx=0;exitDy=0;entryX=0.5;entryY=0;entryDx=0;entryDy=0;" parent="1" source="1xTmKdq7Xywd2hlqX2Ob-21" target="1xTmKdq7Xywd2hlqX2Ob-16" edge="1">
                    <mxGeometry width="50" height="50" relative="1" as="geometry">
                        <mxPoint x="180" y="135" as="sourcePoint"/>
                        <mxPoint x="230" y="85" as="targetPoint"/>
                    </mxGeometry>
                </mxCell>
                <mxCell id="1xTmKdq7Xywd2hlqX2Ob-40" value="" style="endArrow=classic;html=1;exitX=0.5;exitY=1;exitDx=0;exitDy=0;entryX=0.5;entryY=0;entryDx=0;entryDy=0;" parent="1" source="1xTmKdq7Xywd2hlqX2Ob-20" target="1xTmKdq7Xywd2hlqX2Ob-3" edge="1">
                    <mxGeometry width="50" height="50" relative="1" as="geometry">
                        <mxPoint x="515" y="490" as="sourcePoint"/>
                        <mxPoint x="565" y="440" as="targetPoint"/>
                    </mxGeometry>
                </mxCell>
                <mxCell id="1xTmKdq7Xywd2hlqX2Ob-41" value="" style="endArrow=classic;html=1;exitX=0.5;exitY=1;exitDx=0;exitDy=0;entryX=0.5;entryY=0;entryDx=0;entryDy=0;" parent="1" source="1xTmKdq7Xywd2hlqX2Ob-20" target="1xTmKdq7Xywd2hlqX2Ob-9" edge="1">
                    <mxGeometry width="50" height="50" relative="1" as="geometry">
                        <mxPoint x="515" y="490" as="sourcePoint"/>
                        <mxPoint x="565" y="440" as="targetPoint"/>
                    </mxGeometry>
                </mxCell>
                <mxCell id="1xTmKdq7Xywd2hlqX2Ob-42" value="" style="endArrow=classic;html=1;exitX=0.5;exitY=1;exitDx=0;exitDy=0;entryX=0.5;entryY=0;entryDx=0;entryDy=0;" parent="1" source="1xTmKdq7Xywd2hlqX2Ob-20" target="1xTmKdq7Xywd2hlqX2Ob-2" edge="1">
                    <mxGeometry width="50" height="50" relative="1" as="geometry">
                        <mxPoint x="515" y="490" as="sourcePoint"/>
                        <mxPoint x="565" y="440" as="targetPoint"/>
                    </mxGeometry>
                </mxCell>
                <mxCell id="1xTmKdq7Xywd2hlqX2Ob-43" value="" style="endArrow=classic;html=1;exitX=0;exitY=0.5;exitDx=0;exitDy=0;entryX=1;entryY=0.5;entryDx=0;entryDy=0;" parent="1" source="1xTmKdq7Xywd2hlqX2Ob-21" target="1xTmKdq7Xywd2hlqX2Ob-8" edge="1">
                    <mxGeometry width="50" height="50" relative="1" as="geometry">
                        <mxPoint x="400" y="135" as="sourcePoint"/>
                        <mxPoint x="450" y="85" as="targetPoint"/>
                    </mxGeometry>
                </mxCell>
            </root>
        </mxGraphModel>
    </diagram>
</mxfile>